<svg width="3788" height="1168" viewBox="0 0 3788 1168" fill="none" xmlns="http://www.w3.org/2000/svg">
<g filter="url(#filter0_d)">
<rect x="24" y="24" width="3720" height="1100" rx="300" fill="white"/>
</g>
<path d="M269.179 705.767C217.937 433.327 353.362 170.574 664.197 135.617C621.33 89.8165 562.771 89.4728 535.834 95.047C488.26 110.203 489.752 140.988 435.791 180.75C382.147 211.386 355.206 187.926 316.132 219.687C277.136 251.21 304.346 323.581 287.991 337.655C271.757 365.792 221.401 390.858 212.234 426.397C204.655 471.85 232.796 504.319 231.714 543.28C234.964 575.744 199.394 594.104 204.503 620.42C219.812 663.408 249.315 689.283 263.225 701.209C266.413 703.459 269.78 708.994 269.175 705.767H269.179Z" fill="#0D0C0D"/>
<path d="M822.264 328.637C819.563 328.636 816.889 328.104 814.394 327.07C811.899 326.037 809.632 324.522 807.722 322.612C805.812 320.702 804.298 318.434 803.265 315.939C802.231 313.444 801.699 310.769 801.7 308.068C801.7 305.368 802.232 302.693 803.266 300.198C804.3 297.703 805.815 295.436 807.725 293.526C809.635 291.617 811.902 290.102 814.397 289.069C816.893 288.035 819.567 287.504 822.268 287.504C827.723 287.504 832.954 289.671 836.811 293.528C840.668 297.385 842.834 302.616 842.834 308.07C842.834 313.525 840.668 318.756 836.811 322.613C832.954 326.47 827.723 328.637 822.268 328.637H822.264ZM281.18 735.487C231.934 498.706 384.317 300.859 679.409 398.261C852.561 499.558 1070.38 492.96 1080.2 427.48C1104.45 348.984 969.81 187.223 768.514 145.016C369.164 67.0908 153.872 498.706 281.18 735.483V735.487Z" fill="url(#paint0_radial)"/>
<path d="M936.263 761.893C995.559 768.319 1051.85 754.088 1104.01 711.569C1025.2 799.471 926.665 843.666 813.607 855.69C867.591 901.584 919.65 922.256 969.45 913.408C831.068 951.595 715.127 909.564 574.088 769.112C566.706 806.92 606.639 865.83 647.799 903.431C408.98 799.897 388.042 477.367 679.256 398.031C377.382 252.993 206.684 534.804 290.547 765.772C372.605 943.662 591.268 1080.61 830.923 1050.5C947.329 1036.24 1121.16 955.978 1192.18 765.772C1142.13 810.686 1052.66 849.803 1012.74 852.803C1147.86 785.276 1220.8 670.53 1200.33 513.702C1172.34 580.335 1135.41 631.511 1089.22 666.655C1187.34 513.699 1170.51 434.64 1097.88 347.754C1149.82 490.613 1082.63 649.163 936.263 761.893V761.893Z" fill="url(#paint1_radial)"/>
<path d="M866.918 926.473C856.664 924.559 890.16 940.039 825.403 922.895C760.649 905.754 694.716 889.235 574.087 769.106C566.705 806.919 606.638 865.825 647.798 903.43C758.907 980.922 683.345 944.68 852.641 1003.2C866.227 976.164 866.918 952.133 866.918 926.473V926.473Z" fill="url(#paint2_linear)"/>
<path d="M651.664 317.979C651.664 317.979 666.382 296.253 672.113 286.456C679.136 274.448 689.917 252.565 689.917 252.565C689.917 252.565 576.621 215.601 548.816 211.089C462.383 233.526 462.071 269.737 510.391 325.163C515.766 331.335 651.664 317.979 651.664 317.979Z" fill="url(#paint3_linear)"/>
<line x1="550.339" y1="570.063" x2="241.747" y2="898.187" stroke="black" stroke-width="50"/>
<line x1="636.276" y1="652.094" x2="327.683" y2="980.218" stroke="black" stroke-width="50"/>
<path d="M1444.5 448.42C1466.06 448.42 1483.42 450.94 1496.58 455.98C1509.74 460.74 1519.26 469.14 1525.14 481.18C1531.3 492.94 1534.38 509.74 1534.38 531.58C1534.38 555.94 1530.18 574 1521.78 585.76C1513.66 597.24 1500.08 604.38 1481.04 607.18V608.86C1488.32 611.1 1495.04 615.72 1501.2 622.72C1507.36 629.72 1512.12 638.82 1515.48 650.02L1544.88 742H1515.48L1487.76 650.86C1483.56 638.82 1478.1 630.28 1471.38 625.24C1464.66 620.2 1456.12 617.68 1445.76 617.68C1430.36 617.68 1416.64 617.68 1404.6 617.68C1392.84 617.4 1382.76 617.12 1374.36 616.84V742H1347.06V452.2C1357.14 451.08 1366.66 450.24 1375.62 449.68C1384.86 449.12 1394.8 448.84 1405.44 448.84C1416.36 448.56 1429.38 448.42 1444.5 448.42ZM1443.66 472.78C1429.66 472.78 1416.64 472.78 1404.6 472.78C1392.84 472.78 1382.76 472.92 1374.36 473.2V593.74H1443.66C1459.34 593.46 1471.66 591.64 1480.62 588.28C1489.86 584.64 1496.44 578.48 1500.36 569.8C1504.28 560.84 1506.24 548.52 1506.24 532.84C1506.24 516.88 1504.28 504.56 1500.36 495.88C1496.44 487.2 1489.86 481.18 1480.62 477.82C1471.66 474.46 1459.34 472.78 1443.66 472.78ZM1612.19 538.3L1669.73 625.66H1680.65L1738.19 538.3H1767.59L1701.23 636.58L1772.63 742H1743.23L1679.81 646.66H1670.57L1607.15 742H1577.75L1648.73 636.58L1582.79 538.3H1612.19ZM1887.09 452.2V685.72C1887.09 725.48 1868.89 745.36 1832.49 745.36C1827.73 745.36 1821.85 744.94 1814.85 744.1C1807.85 743.26 1802.25 742.14 1798.05 740.74L1800.99 721.84H1823.25C1847.33 721.84 1859.37 709.94 1859.37 686.14V452.2H1887.09ZM2040.8 447.16C2054.24 447.44 2067.96 448.14 2081.96 449.26C2096.24 450.1 2110.38 451.92 2124.38 454.72L2122.28 474.88C2109.96 474.04 2096.8 473.34 2082.8 472.78C2068.8 472.22 2055.22 471.94 2042.06 471.94C2026.66 471.94 2014.2 472.78 2004.68 474.46C1995.16 476.14 1988.16 480.62 1983.68 487.9C1979.2 494.9 1976.96 506.8 1976.96 523.6C1976.96 541.52 1980.04 554.26 1986.2 561.82C1992.36 569.1 2002.58 574.14 2016.86 576.94L2077.76 589.54C2099.6 594.02 2114.72 602.56 2123.12 615.16C2131.8 627.76 2136.14 645.68 2136.14 668.92C2136.14 691.6 2132.64 708.54 2125.64 719.74C2118.92 730.66 2108.56 737.94 2094.56 741.58C2080.84 745.22 2063.34 747.04 2042.06 747.04C2031.98 747.04 2019.52 746.62 2004.68 745.78C1989.84 744.94 1972.9 742.98 1953.86 739.9L1955.96 719.74C1970.24 720.3 1982.14 720.86 1991.66 721.42C2001.18 721.7 2009.86 721.98 2017.7 722.26C2025.54 722.26 2033.94 722.26 2042.9 722.26C2059.14 721.98 2072.02 720.58 2081.54 718.06C2091.06 715.54 2097.78 710.5 2101.7 702.94C2105.9 695.38 2108 683.9 2108 668.5C2108 655.9 2106.6 646.1 2103.8 639.1C2101 631.82 2096.66 626.36 2090.78 622.72C2084.9 619.08 2077.2 616.28 2067.68 614.32L2005.94 601.3C1985.22 597.1 1970.52 588.7 1961.84 576.1C1953.44 563.22 1949.24 545.58 1949.24 523.18C1949.24 500.22 1952.46 483.42 1958.9 472.78C1965.62 461.86 1975.7 454.86 1989.14 451.78C2002.86 448.7 2020.08 447.16 2040.8 447.16ZM2320.35 625.66V646.66H2191.41V625.66H2320.35ZM2492.53 448.42C2519.41 448.42 2540.97 453.18 2557.21 462.7C2573.45 471.94 2585.07 487.48 2592.07 509.32C2599.07 530.88 2602.57 560.14 2602.57 597.1C2602.57 634.06 2599.07 663.46 2592.07 685.3C2585.07 706.86 2573.45 722.4 2557.21 731.92C2540.97 741.16 2519.41 745.78 2492.53 745.78C2472.93 745.78 2454.87 745.36 2438.35 744.52C2421.83 743.96 2406.29 743.12 2391.73 742V452.2C2406.29 451.08 2421.83 450.24 2438.35 449.68C2455.15 448.84 2473.21 448.42 2492.53 448.42ZM2492.53 472.36C2478.25 472.36 2465.09 472.5 2453.05 472.78C2441.29 473.06 2429.95 473.34 2419.03 473.62V720.58C2429.67 720.86 2441.01 721.14 2453.05 721.42C2465.09 721.42 2478.25 721.42 2492.53 721.42C2512.69 721.42 2528.65 717.5 2540.41 709.66C2552.45 701.82 2560.99 688.94 2566.03 671.02C2571.35 652.82 2574.01 628.18 2574.01 597.1C2574.01 566.02 2571.35 541.38 2566.03 523.18C2560.99 504.98 2552.45 491.96 2540.41 484.12C2528.65 476.28 2512.69 472.36 2492.53 472.36ZM2747.09 533.26C2776.21 533.26 2797.49 538.58 2810.93 549.22C2824.65 559.86 2831.65 575.68 2831.93 596.68C2832.21 614.88 2828.57 628.88 2821.01 638.68C2813.73 648.48 2801.69 653.38 2784.89 653.38H2684.09C2684.93 671.86 2687.87 686.28 2692.91 696.64C2698.23 706.72 2705.93 713.86 2716.01 718.06C2726.09 721.98 2738.83 723.94 2754.23 723.94C2765.99 723.94 2778.17 723.52 2790.77 722.68C2803.65 721.56 2814.85 720.3 2824.37 718.9L2827.31 736.96C2821.43 739.2 2813.87 741.02 2804.63 742.42C2795.67 744.1 2786.29 745.22 2776.49 745.78C2766.97 746.62 2758.43 747.04 2750.87 747.04C2727.91 747.04 2709.43 743.54 2695.43 736.54C2681.71 729.26 2671.63 717.78 2665.19 702.1C2658.75 686.42 2655.53 665.56 2655.53 639.52C2655.53 613.2 2658.61 592.34 2664.77 576.94C2671.21 561.26 2681.15 550.06 2694.59 543.34C2708.03 536.62 2725.53 533.26 2747.09 533.26ZM2748.35 556.36C2732.67 556.36 2720.07 558.74 2710.55 563.5C2701.31 567.98 2694.59 575.82 2690.39 587.02C2686.19 597.94 2683.95 613.06 2683.67 632.38H2779.01C2789.37 632.38 2796.37 629.02 2800.01 622.3C2803.65 615.58 2805.33 607.18 2805.05 597.1C2804.77 582.82 2800.15 572.46 2791.19 566.02C2782.23 559.58 2767.95 556.36 2748.35 556.36ZM2994.13 533.26C3019.61 533.26 3038.23 541.52 3049.99 558.04C3061.75 574.28 3067.63 601.58 3067.63 639.94C3067.63 664.02 3064.97 684.04 3059.65 700C3054.33 715.68 3045.23 727.44 3032.35 735.28C3019.75 743.12 3002.39 747.04 2980.27 747.04C2965.99 747.04 2950.73 745.78 2934.49 743.26C2918.53 741.02 2903.55 737.52 2889.55 732.76V448H2916.01V529.48C2916.01 538.16 2915.87 545.86 2915.59 552.58C2915.31 559.3 2914.47 566.16 2913.07 573.16C2926.23 560.28 2939.53 550.48 2952.97 543.76C2966.41 536.76 2980.13 533.26 2994.13 533.26ZM2985.73 556.78C2974.25 556.78 2963.19 559.86 2952.55 566.02C2941.91 572.18 2929.59 580.72 2915.59 591.64L2916.01 715.96C2927.49 719.04 2938.41 721.28 2948.77 722.68C2959.41 723.8 2969.77 724.22 2979.85 723.94C3001.41 723.94 3016.81 717.78 3026.05 705.46C3035.29 692.86 3039.91 671.02 3039.91 639.94C3039.91 619.5 3038.23 603.26 3034.87 591.22C3031.79 578.9 3026.33 570.08 3018.49 564.76C3010.65 559.44 2999.73 556.78 2985.73 556.78ZM3153.48 538.3V684.46C3153.48 698.46 3156.42 708.54 3162.3 714.7C3168.18 720.86 3177.7 723.94 3190.86 723.94C3202.9 723.94 3214.8 721.14 3226.56 715.54C3238.6 709.66 3252.74 701.26 3268.98 690.34V538.3H3295.44V742H3274.44L3272.34 709.66C3256.66 722.26 3241.4 731.78 3226.56 738.22C3211.72 744.38 3196.88 747.46 3182.04 747.46C3145.36 747.46 3127.02 728.84 3127.02 691.6V538.3H3153.48ZM3444.7 533.26C3462.62 533.26 3477.46 534.94 3489.22 538.3H3553.48L3551.8 553.84L3517.78 555.94C3525.62 565.74 3529.54 579.6 3529.54 597.52C3529.54 619.36 3523.24 635.6 3510.64 646.24C3498.04 656.6 3476.06 661.78 3444.7 661.78C3425.94 661.78 3410.54 659.82 3398.5 655.9C3394.3 661.22 3391.78 666.82 3390.94 672.7C3390.38 678.58 3391.78 683.9 3395.14 688.66C3398.78 693.42 3405.22 696.5 3414.46 697.9L3492.58 710.92C3511.06 713.72 3523.8 719.6 3530.8 728.56C3537.8 737.52 3541.3 750.26 3541.3 766.78C3541.3 782.18 3538.22 794.36 3532.06 803.32C3526.18 812.28 3516.24 818.72 3502.24 822.64C3488.52 826.56 3470.04 828.52 3446.8 828.52C3423 828.52 3404.1 826.56 3390.1 822.64C3376.1 818.72 3366.02 812.28 3359.86 803.32C3353.98 794.64 3351.04 782.74 3351.04 767.62C3351.04 754.18 3353.56 743.54 3358.6 735.7C3363.64 727.58 3372.6 720.16 3385.48 713.44C3377.36 708.68 3372.18 702.38 3369.94 694.54C3367.7 686.42 3367.84 678.3 3370.36 670.18C3373.16 661.78 3377.92 655.06 3384.64 650.02C3375.68 644.98 3369.24 638.12 3365.32 629.44C3361.4 620.76 3359.44 610.26 3359.44 597.94C3359.44 575.82 3365.74 559.58 3378.34 549.22C3391.22 538.58 3413.34 533.26 3444.7 533.26ZM3444.7 554.26C3422.3 554.26 3406.62 557.76 3397.66 564.76C3388.7 571.76 3384.22 582.68 3384.22 597.52C3384.22 612.64 3388.7 623.7 3397.66 630.7C3406.62 637.42 3422.3 640.78 3444.7 640.78C3467.1 640.78 3482.64 637.42 3491.32 630.7C3500 623.7 3504.34 612.64 3504.34 597.52C3504.34 582.68 3500 571.76 3491.32 564.76C3482.64 557.76 3467.1 554.26 3444.7 554.26ZM3377.08 765.94C3377.08 776.3 3379.18 784.28 3383.38 789.88C3387.58 795.76 3394.72 799.82 3404.8 802.06C3414.88 804.3 3428.88 805.42 3446.8 805.42C3464.16 805.42 3477.74 804.16 3487.54 801.64C3497.62 799.4 3504.76 795.34 3508.96 789.46C3513.16 783.86 3515.26 776.02 3515.26 765.94C3515.26 754.46 3512.88 746.48 3508.12 742C3503.64 737.24 3494.12 733.6 3479.56 731.08L3403.54 719.32L3401.86 720.58C3392.62 726.74 3386.18 733.18 3382.54 739.9C3378.9 746.34 3377.08 755.02 3377.08 765.94Z" fill="black"/>
<defs>
<filter id="filter0_d" x="0" y="0" width="3788" height="1168" filterUnits="userSpaceOnUse" color-interpolation-filters="sRGB">
<feFlood flood-opacity="0" result="BackgroundImageFix"/>
<feColorMatrix in="SourceAlpha" type="matrix" values="0 0 0 0 0 0 0 0 0 0 0 0 0 0 0 0 0 0 127 0"/>
<feMorphology radius="10" operator="dilate" in="SourceAlpha" result="effect1_dropShadow"/>
<feOffset dx="10" dy="10"/>
<feGaussianBlur stdDeviation="12"/>
<feColorMatrix type="matrix" values="0 0 0 0 0 0 0 0 0 0 0 0 0 0 0 0 0 0 0.06 0"/>
<feBlend mode="normal" in2="BackgroundImageFix" result="effect1_dropShadow"/>
<feBlend mode="normal" in="SourceGraphic" in2="effect1_dropShadow" result="shape"/>
</filter>
<radialGradient id="paint0_radial" cx="0" cy="0" r="1" gradientUnits="userSpaceOnUse" gradientTransform="translate(904.974 362.729) scale(753.501 539.015)">
<stop stop-color="#121011"/>
<stop offset="1" stop-color="#4D008E"/>
</radialGradient>
<radialGradient id="paint1_radial" cx="0" cy="0" r="1" gradientUnits="userSpaceOnUse" gradientTransform="translate(911.603 378.844) scale(763.747 577.746)">
<stop/>
<stop offset="0.29175" stop-color="#A722EF"/>
<stop offset="1" stop-color="#4F2CB5"/>
</radialGradient>
<linearGradient id="paint2_linear" x1="626.771" y1="769.106" x2="761.775" y2="996.151" gradientUnits="userSpaceOnUse">
<stop stop-color="#5528B7"/>
<stop offset="0.66971" stop-color="#7619BF"/>
<stop offset="0.82715" stop-color="#49219F" stop-opacity="0.2"/>
<stop offset="1" stop-color="#711CB5" stop-opacity="0"/>
</linearGradient>
<linearGradient id="paint3_linear" x1="615.552" y1="293.885" x2="595.959" y2="256.36" gradientUnits="userSpaceOnUse">
<stop stop-opacity="0.95"/>
<stop offset="0.40035" stop-opacity="0.4"/>
<stop offset="0.649" stop-opacity="0.892"/>
<stop offset="1"/>
</linearGradient>
</defs>
</svg>
