<svg width="256" height="247" viewBox="0 0 256 247" fill="none" xmlns="http://www.w3.org/2000/svg">
<g clip-path="url(#clip0)">
<path d="M16.6848 157.125C3.56681 87.3801 38.2358 20.1151 117.81 11.1661C106.836 -0.558862 91.8448 -0.646862 84.9488 0.780138C72.7698 4.66014 73.1518 12.5411 59.3378 22.7201C45.6048 30.5631 38.7078 24.5571 28.7048 32.6881C18.7218 40.7581 25.6878 59.2851 21.5008 62.8881C17.3448 70.0911 4.45381 76.5081 2.10681 85.6061C0.166809 97.2421 7.37081 105.554 7.09381 115.528C7.92581 123.839 -1.18019 128.539 0.127808 135.276C4.04681 146.281 11.5998 152.905 15.1608 155.958C15.9768 156.534 16.8388 157.951 16.6838 157.125H16.6848Z" fill="#0D0C0D"/>
<path d="M158.275 60.5792C157.584 60.5792 156.899 60.4429 156.26 60.1783C155.622 59.9136 155.041 59.5257 154.552 59.0368C154.064 58.5478 153.676 57.9674 153.411 57.3286C153.147 56.6898 153.011 56.0051 153.011 55.3137C153.011 54.6223 153.147 53.9377 153.412 53.2989C153.676 52.6602 154.064 52.0798 154.553 51.5909C155.042 51.1021 155.623 50.7143 156.261 50.4498C156.9 50.1853 157.585 50.0492 158.276 50.0492C159.673 50.0492 161.012 50.6039 161.999 51.5913C162.986 52.5787 163.541 53.9179 163.541 55.3142C163.541 56.7106 162.986 58.0498 161.999 59.0371C161.012 60.0245 159.673 60.5792 158.276 60.5792H158.275ZM19.7572 164.733C7.15018 104.117 46.1602 53.4682 121.704 78.4032C166.031 104.335 221.794 102.646 224.307 85.8832C230.514 65.7882 196.047 24.3772 144.515 13.5722C42.2812 -6.37678 -12.8338 104.117 19.7572 164.732V164.733Z" fill="url(#paint0_radial)"/>
<path d="M187.459 171.493C202.639 173.138 217.049 169.495 230.402 158.61C210.228 181.113 185.002 192.427 156.059 195.505C169.879 207.254 183.206 212.546 195.955 210.281C160.529 220.057 130.848 209.297 94.7421 173.341C92.8521 183.02 103.075 198.101 113.612 207.727C52.4741 181.222 47.1141 98.6541 121.665 78.3441C44.3851 41.2141 0.686141 113.358 22.1551 172.486C43.1621 218.026 99.1401 253.086 160.492 245.376C190.292 241.726 234.794 221.179 252.974 172.486C240.161 183.984 217.258 193.998 207.038 194.766C241.628 177.479 260.302 148.104 255.06 107.956C247.895 125.014 238.441 138.115 226.616 147.112C251.736 107.955 247.426 87.7161 228.833 65.4731C242.131 102.045 224.928 142.634 187.459 171.493V171.493Z" fill="url(#paint1_radial)"/>
<path d="M169.707 213.626C167.082 213.136 175.657 217.099 159.079 212.71C142.502 208.322 125.623 204.093 94.7418 173.34C92.8518 183.02 103.075 198.1 113.612 207.727C142.056 227.565 122.712 218.287 166.052 233.269C169.53 226.347 169.707 220.195 169.707 213.626V213.626Z" fill="url(#paint2_linear)"/>
<path d="M114.601 57.8508C114.601 57.8508 118.369 52.2888 119.836 49.7808C121.634 46.7068 124.394 41.1048 124.394 41.1048C124.394 41.1048 95.3903 31.6418 88.2723 30.4868C66.1453 36.2308 66.0653 45.5008 78.4353 59.6898C79.8113 61.2698 114.601 57.8508 114.601 57.8508Z" fill="url(#paint3_linear)"/>
<line x1="88.735" y1="122.453" x2="9.73496" y2="206.453" stroke="black" stroke-width="13"/>
<line x1="110.735" y1="143.453" x2="31.735" y2="227.453" stroke="black" stroke-width="13"/>
</g>
<defs>
<radialGradient id="paint0_radial" cx="0" cy="0" r="1" gradientUnits="userSpaceOnUse" gradientTransform="translate(179.449 69.3069) scale(192.897 137.988)">
<stop stop-color="#121011"/>
<stop offset="1" stop-color="#4D008E"/>
</radialGradient>
<radialGradient id="paint1_radial" cx="0" cy="0" r="1" gradientUnits="userSpaceOnUse" gradientTransform="translate(181.146 73.4322) scale(195.52 147.903)">
<stop/>
<stop offset="0.29175" stop-color="#A722EF"/>
<stop offset="1" stop-color="#4F2CB5"/>
</radialGradient>
<linearGradient id="paint2_linear" x1="108.229" y1="173.34" x2="142.79" y2="231.463" gradientUnits="userSpaceOnUse">
<stop stop-color="#5528B7"/>
<stop offset="0.66971" stop-color="#7619BF"/>
<stop offset="0.82715" stop-color="#49219F" stop-opacity="0.2"/>
<stop offset="1" stop-color="#711CB5" stop-opacity="0"/>
</linearGradient>
<linearGradient id="paint3_linear" x1="105.357" y1="51.6826" x2="100.341" y2="42.0763" gradientUnits="userSpaceOnUse">
<stop stop-opacity="0.95"/>
<stop offset="0.40035" stop-opacity="0.4"/>
<stop offset="0.649" stop-opacity="0.892"/>
<stop offset="1"/>
</linearGradient>
<clipPath id="clip0">
<rect width="256" height="247" fill="white"/>
</clipPath>
</defs>
</svg>
