<svg width="3925" height="1568" viewBox="0 0 3925 1568" fill="none" xmlns="http://www.w3.org/2000/svg">
<g filter="url(#filter0_d)">
<rect x="24" y="24" width="3857" height="1500" rx="300" fill="white"/>
</g>
<path d="M357.179 905.768C305.937 633.327 441.362 370.575 752.197 335.618C709.33 289.817 650.771 289.473 623.834 295.047C576.26 310.204 577.752 340.989 523.791 380.75C470.147 411.387 443.206 387.926 404.132 419.688C365.136 451.211 392.346 523.582 375.991 537.656C359.757 565.793 309.401 590.859 300.234 626.398C292.655 671.851 320.796 704.319 319.714 743.28C322.964 775.745 287.394 794.104 292.503 820.42C307.812 863.409 337.315 889.283 351.225 901.209C354.413 903.459 357.78 908.994 357.175 905.768H357.179Z" fill="#0D0C0D"/>
<path d="M910.264 528.637C907.563 528.636 904.889 528.104 902.394 527.07C899.899 526.037 897.632 524.522 895.722 522.612C893.812 520.702 892.298 518.434 891.265 515.939C890.231 513.444 889.699 510.769 889.7 508.068C889.7 505.368 890.232 502.693 891.266 500.198C892.3 497.703 893.815 495.436 895.725 493.526C897.635 491.617 899.902 490.102 902.397 489.069C904.893 488.035 907.567 487.504 910.268 487.504C915.723 487.504 920.954 489.671 924.811 493.528C928.668 497.385 930.834 502.616 930.834 508.07C930.834 513.525 928.668 518.756 924.811 522.613C920.954 526.47 915.723 528.637 910.268 528.637H910.264ZM369.18 935.487C319.934 698.706 472.317 500.859 767.409 598.261C940.561 699.558 1158.38 692.96 1168.2 627.48C1192.45 548.984 1057.81 387.223 856.514 345.016C457.164 267.091 241.872 698.706 369.18 935.483V935.487Z" fill="url(#paint0_radial)"/>
<path d="M1024.26 961.892C1083.56 968.318 1139.85 954.088 1192.01 911.568C1113.2 999.47 1014.67 1043.67 901.607 1055.69C955.591 1101.58 1007.65 1122.26 1057.45 1113.41C919.068 1151.59 803.127 1109.56 662.088 969.111C654.706 1006.92 694.639 1065.83 735.799 1103.43C496.98 999.896 476.042 677.366 767.256 598.031C465.382 452.992 294.684 734.803 378.547 965.771C460.605 1143.66 679.268 1280.61 918.923 1250.5C1035.33 1236.24 1209.16 1155.98 1280.18 965.771C1230.13 1010.69 1140.66 1049.8 1100.74 1052.8C1235.86 985.275 1308.8 870.53 1288.33 713.702C1260.34 780.335 1223.41 831.51 1177.22 866.655C1275.34 713.698 1258.51 634.64 1185.88 547.753C1237.82 690.612 1170.63 849.162 1024.26 961.892V961.892Z" fill="url(#paint1_radial)"/>
<path d="M954.918 1126.47C944.664 1124.56 978.16 1140.04 913.403 1122.89C848.649 1105.75 782.716 1089.23 662.087 969.106C654.705 1006.92 694.638 1065.82 735.798 1103.43C846.907 1180.92 771.345 1144.68 940.641 1203.2C954.227 1176.16 954.918 1152.13 954.918 1126.47V1126.47Z" fill="url(#paint2_linear)"/>
<path d="M739.664 517.979C739.664 517.979 754.382 496.253 760.113 486.456C767.136 474.448 777.917 452.565 777.917 452.565C777.917 452.565 664.621 415.601 636.816 411.089C550.383 433.526 550.071 469.737 598.391 525.163C603.766 531.335 739.664 517.979 739.664 517.979Z" fill="url(#paint3_linear)"/>
<line x1="638.339" y1="770.063" x2="329.747" y2="1098.19" stroke="black" stroke-width="50"/>
<line x1="724.276" y1="852.094" x2="415.683" y2="1180.22" stroke="black" stroke-width="50"/>
<path d="M1613.6 654.8C1633.6 654.8 1649.6 657.067 1661.6 661.6C1673.6 665.867 1682.27 673.733 1687.6 685.2C1692.93 696.4 1695.6 712.267 1695.6 732.8C1695.6 757.067 1691.6 774.667 1683.6 785.6C1675.6 796.533 1662.67 803.2 1644.8 805.6V807.6C1652 809.733 1658.27 814.267 1663.6 821.2C1668.93 827.867 1673.2 836.133 1676.4 846L1705.6 934H1687.6L1659.6 847.2C1655.07 834.4 1649.33 825.467 1642.4 820.4C1635.47 815.067 1626.8 812.4 1616.4 812.4C1599.07 812.4 1583.87 812.267 1570.8 812C1558 811.733 1547.73 811.467 1540 811.2V934H1523.6V658C1533.2 656.933 1542.13 656.267 1550.4 656C1558.67 655.467 1567.73 655.2 1577.6 655.2C1587.73 654.933 1599.73 654.8 1613.6 654.8ZM1613.6 669.2C1597.6 669.2 1583.2 669.333 1570.4 669.6C1557.87 669.6 1547.73 669.733 1540 670V797.6H1613.6C1629.6 797.333 1642.4 795.333 1652 791.6C1661.6 787.867 1668.4 781.467 1672.4 772.4C1676.67 763.067 1678.8 750 1678.8 733.2C1678.8 716.4 1676.67 703.333 1672.4 694C1668.4 684.667 1661.6 678.267 1652 674.8C1642.4 671.067 1629.6 669.2 1613.6 669.2ZM1764.54 741.2L1824.94 826.8H1835.74L1896.14 741.2H1914.54L1848.54 834L1919.34 934H1900.94L1834.94 840H1825.74L1759.74 934H1741.34L1812.14 834L1746.14 741.2H1764.54ZM2025.24 658V884.8C2025.24 919.733 2008.57 937.067 1975.24 936.8C1971.24 936.8 1966.44 936.4 1960.84 935.6C1955.24 935.067 1950.57 934.4 1946.84 933.6L1948.84 922.4H1971.24C1996.3 922.4 2008.84 909.867 2008.84 884.8V658H2025.24ZM2173.69 653.6C2186.49 653.6 2199.29 654.133 2212.09 655.2C2225.15 656 2237.95 657.333 2250.49 659.2L2248.89 671.2C2237.15 670.667 2224.89 670.133 2212.09 669.6C2199.29 668.8 2186.62 668.4 2174.09 668.4C2162.09 668.4 2151.69 668.8 2142.89 669.6C2134.35 670.4 2127.29 672.533 2121.69 676C2116.09 679.467 2111.95 685.067 2109.29 692.8C2106.89 700.533 2105.69 711.333 2105.69 725.2C2105.69 743.867 2108.75 757.467 2114.89 766C2121.29 774.267 2131.95 779.6 2146.89 782L2206.89 792C2227.15 795.2 2241.42 802.4 2249.69 813.6C2258.22 824.8 2262.49 842.133 2262.49 865.6C2262.49 887.467 2259.15 903.6 2252.49 914C2246.09 924.133 2236.49 930.8 2223.69 934C2210.89 936.933 2195.02 938.4 2176.09 938.4C2165.69 938.4 2153.69 938.133 2140.09 937.6C2126.49 937.067 2111.02 935.6 2093.69 933.2L2094.89 920.8C2106.35 921.6 2116.49 922.267 2125.29 922.8C2134.09 923.067 2142.49 923.333 2150.49 923.6C2158.49 923.6 2167.29 923.6 2176.89 923.6C2193.69 923.333 2207.02 921.867 2216.89 919.2C2227.02 916.533 2234.35 911.2 2238.89 903.2C2243.42 894.933 2245.69 882.4 2245.69 865.6C2245.69 845.333 2242.35 831.2 2235.69 823.2C2229.29 814.933 2218.35 809.6 2202.89 807.2L2142.89 797.2C2123.15 794.267 2109.15 787.067 2100.89 775.6C2092.89 763.867 2088.89 746.933 2088.89 724.8C2088.89 708.267 2090.62 695.2 2094.09 685.6C2097.55 676 2102.75 668.933 2109.69 664.4C2116.89 659.6 2125.69 656.533 2136.09 655.2C2146.75 653.867 2159.29 653.333 2173.69 653.6ZM2442.75 826.8V840H2318.75V826.8H2442.75ZM2608.21 654.4C2633.27 654.4 2653.27 658.933 2668.21 668C2683.41 677.067 2694.21 692 2700.61 712.8C2707.27 733.333 2710.61 761.067 2710.61 796C2710.61 830.933 2707.27 858.8 2700.61 879.6C2694.21 900.133 2683.41 914.933 2668.21 924C2653.27 933.067 2633.27 937.6 2608.21 937.6C2590.34 937.6 2573.67 937.2 2558.21 936.4C2543.01 935.867 2528.61 935.067 2515.01 934V658C2528.61 656.933 2543.01 656.133 2558.21 655.6C2573.67 654.8 2590.34 654.4 2608.21 654.4ZM2608.21 669.2C2593.27 669.2 2579.54 669.333 2567.01 669.6C2554.74 669.867 2542.87 670.133 2531.41 670.4V921.6C2542.61 921.867 2554.47 922.133 2567.01 922.4C2579.54 922.667 2593.27 922.8 2608.21 922.8C2629.27 922.8 2645.94 918.8 2658.21 910.8C2670.74 902.8 2679.67 889.6 2685.01 871.2C2690.61 852.533 2693.41 827.467 2693.41 796C2693.41 764.533 2690.61 739.6 2685.01 721.2C2679.67 702.533 2670.74 689.2 2658.21 681.2C2645.94 673.2 2629.27 669.2 2608.21 669.2ZM2849.87 736.4C2876 736.4 2895.34 741.2 2907.87 750.8C2920.67 760.133 2927.2 774.267 2927.47 793.2C2927.74 810.267 2924.67 823.333 2918.27 832.4C2911.87 841.2 2900.8 845.6 2885.07 845.6H2782.27C2783.07 865.6 2786 881.333 2791.07 892.8C2796.4 904.267 2804.27 912.4 2814.67 917.2C2825.34 922 2838.8 924.4 2855.07 924.4C2867.34 924.4 2879.34 923.867 2891.07 922.8C2902.8 921.733 2912.8 920.667 2921.07 919.6L2923.07 930.8C2918.27 932.4 2911.74 933.733 2903.47 934.8C2895.2 936.133 2886.54 937.067 2877.47 937.6C2868.4 938.4 2860.27 938.8 2853.07 938.8C2821.87 938.8 2799.47 931.067 2785.87 915.6C2772.27 899.867 2765.47 873.6 2765.47 836.8C2765.47 812 2768.27 792.267 2773.87 777.6C2779.74 762.933 2788.8 752.4 2801.07 746C2813.6 739.6 2829.87 736.4 2849.87 736.4ZM2850.67 750.8C2833.87 750.8 2820.54 753.467 2810.67 758.8C2800.8 763.867 2793.6 772.4 2789.07 784.4C2784.8 796.133 2782.54 812.133 2782.27 832.4H2882.67C2893.6 832.4 2901.2 828.933 2905.47 822C2909.74 815.067 2911.6 805.733 2911.07 794C2910.8 778.8 2905.74 767.867 2895.87 761.2C2886 754.267 2870.94 750.8 2850.67 750.8ZM3079.98 736.4C3104.78 736.4 3122.51 744.133 3133.18 759.6C3144.11 775.067 3149.58 801.067 3149.58 837.6C3149.58 873.067 3143.58 898.8 3131.58 914.8C3119.84 930.8 3099.31 938.8 3069.98 938.8C3056.38 938.8 3042.51 937.6 3028.38 935.2C3014.51 933.067 3000.64 930 2986.78 926V654H3002.78V737.2C3002.78 745.2 3002.64 752.133 3002.38 758C3002.38 763.6 3001.84 769.6 3000.78 776C3014.38 763.733 3027.58 754.133 3040.38 747.2C3053.44 740 3066.64 736.4 3079.98 736.4ZM3076.78 750.8C3064.51 750.8 3052.64 754.133 3041.18 760.8C3029.98 767.2 3017.04 776.267 3002.38 788L3002.78 915.6C3015.31 919.067 3026.91 921.467 3037.58 922.8C3048.24 924.133 3058.91 924.667 3069.58 924.4C3092.51 924.4 3108.78 918 3118.38 905.2C3128.24 892.133 3133.18 869.6 3133.18 837.6C3133.18 805.6 3128.91 783.2 3120.38 770.4C3112.11 757.333 3097.58 750.8 3076.78 750.8ZM3226.6 741.2V882.8C3226.33 897.2 3229.53 907.733 3236.2 914.4C3242.86 921.067 3253.13 924.4 3267 924.4C3280.06 924.4 3292.86 921.333 3305.4 915.2C3317.93 909.067 3332.33 900.133 3348.6 888.4V741.2H3364.6V934H3352.2L3350.6 900.8C3335.13 913.333 3320.2 922.8 3305.8 929.2C3291.4 935.6 3277 938.8 3262.6 938.8C3227.93 938.8 3210.6 921.2 3210.6 886V741.2H3226.6ZM3509.19 736.4C3525.19 736.4 3538.52 738 3549.19 741.2H3609.59L3608.39 751.6L3571.19 753.2C3576.79 758.267 3580.79 764.4 3583.19 771.6C3585.59 778.8 3586.79 787.2 3586.79 796.8C3586.79 817.067 3580.92 832.133 3569.19 842C3557.45 851.6 3537.32 856.4 3508.79 856.4C3489.05 856.4 3473.32 854 3461.59 849.2C3456.52 855.067 3453.32 861.333 3451.99 868C3450.92 874.667 3452.25 880.667 3455.99 886C3459.99 891.067 3467.32 894.533 3477.99 896.4L3553.99 909.2C3571.32 912.4 3582.92 918 3588.79 926C3594.65 934 3597.59 945.733 3597.59 961.2C3597.59 982.267 3591.05 996.933 3577.99 1005.2C3564.92 1013.47 3542.65 1017.6 3511.19 1017.6C3489.32 1017.6 3471.85 1015.87 3458.79 1012.4C3445.99 1008.93 3436.65 1003.07 3430.79 994.8C3425.19 986.533 3422.39 975.467 3422.39 961.6C3422.39 948.267 3424.25 937.6 3427.99 929.6C3431.99 921.6 3439.72 914.533 3451.19 908.4L3456.79 905.2C3447.99 900.933 3442.25 895.067 3439.59 887.6C3436.92 880.133 3436.79 872.533 3439.19 864.8C3441.59 856.8 3446.12 850.133 3452.79 844.8C3445.05 840 3439.32 833.6 3435.59 825.6C3432.12 817.6 3430.39 808 3430.39 796.8C3430.39 776.533 3436.25 761.467 3447.99 751.6C3459.99 741.467 3480.39 736.4 3509.19 736.4ZM3508.79 749.6C3485.59 749.6 3469.19 753.467 3459.59 761.2C3450.25 768.933 3445.59 780.8 3445.59 796.8C3445.59 812.533 3450.39 824.267 3459.99 832C3469.59 839.467 3485.85 843.2 3508.79 843.2C3531.99 843.2 3548.25 839.467 3557.59 832C3566.92 824.267 3571.59 812.533 3571.59 796.8C3571.59 780.8 3566.92 768.933 3557.59 761.2C3548.52 753.467 3532.25 749.6 3508.79 749.6ZM3437.99 960.8C3437.99 977.067 3443.32 988.267 3453.99 994.4C3464.92 1000.53 3483.85 1003.6 3510.79 1003.6C3536.92 1003.6 3555.32 1000.4 3565.99 994C3576.65 987.867 3581.99 976.8 3581.99 960.8C3581.99 948.8 3579.72 940 3575.19 934.4C3570.92 928.8 3561.59 924.667 3547.19 922L3470.39 909.2H3469.59L3461.19 914.4C3451.85 920.267 3445.59 926.533 3442.39 933.2C3439.45 939.867 3437.99 949.067 3437.99 960.8Z" fill="black"/>
<defs>
<filter id="filter0_d" x="0" y="0" width="3925" height="1568" filterUnits="userSpaceOnUse" color-interpolation-filters="sRGB">
<feFlood flood-opacity="0" result="BackgroundImageFix"/>
<feColorMatrix in="SourceAlpha" type="matrix" values="0 0 0 0 0 0 0 0 0 0 0 0 0 0 0 0 0 0 127 0"/>
<feMorphology radius="10" operator="dilate" in="SourceAlpha" result="effect1_dropShadow"/>
<feOffset dx="10" dy="10"/>
<feGaussianBlur stdDeviation="12"/>
<feColorMatrix type="matrix" values="0 0 0 0 0 0 0 0 0 0 0 0 0 0 0 0 0 0 0.06 0"/>
<feBlend mode="normal" in2="BackgroundImageFix" result="effect1_dropShadow"/>
<feBlend mode="normal" in="SourceGraphic" in2="effect1_dropShadow" result="shape"/>
</filter>
<radialGradient id="paint0_radial" cx="0" cy="0" r="1" gradientUnits="userSpaceOnUse" gradientTransform="translate(992.974 562.729) scale(753.501 539.015)">
<stop stop-color="#121011"/>
<stop offset="1" stop-color="#4D008E"/>
</radialGradient>
<radialGradient id="paint1_radial" cx="0" cy="0" r="1" gradientUnits="userSpaceOnUse" gradientTransform="translate(999.603 578.843) scale(763.747 577.746)">
<stop/>
<stop offset="0.29175" stop-color="#A722EF"/>
<stop offset="1" stop-color="#4F2CB5"/>
</radialGradient>
<linearGradient id="paint2_linear" x1="714.771" y1="969.106" x2="849.775" y2="1196.15" gradientUnits="userSpaceOnUse">
<stop stop-color="#5528B7"/>
<stop offset="0.66971" stop-color="#7619BF"/>
<stop offset="0.82715" stop-color="#49219F" stop-opacity="0.2"/>
<stop offset="1" stop-color="#711CB5" stop-opacity="0"/>
</linearGradient>
<linearGradient id="paint3_linear" x1="703.552" y1="493.885" x2="683.959" y2="456.36" gradientUnits="userSpaceOnUse">
<stop stop-opacity="0.95"/>
<stop offset="0.40035" stop-opacity="0.4"/>
<stop offset="0.649" stop-opacity="0.892"/>
<stop offset="1"/>
</linearGradient>
</defs>
</svg>
